<svg xmlns="http://www.w3.org/2000/svg" viewBox="0 0 2279.02 150"><defs><style>.cls-1{fill:none;stroke:#515151;stroke-miterlimit:10;stroke-width:20px;}</style></defs><g id="Layer_2" data-name="Layer 2"><g id="Layer_1-2" data-name="Layer 1"><path class="cls-1" d="M0,10c71.22,0,71.22,130,142.44,130S213.66,10,284.87,10s71.22,130,142.44,130S498.53,10,569.75,10,641,140,712.18,140,783.4,10,854.62,10s71.22,130,142.44,130S1068.28,10,1139.5,10s71.22,130,142.43,130,71.22-130,142.44-130,71.22,130,142.44,130S1638,10,1709.25,10s71.22,130,142.44,130,71.22-130,142.44-130,71.22,130,142.44,130S2207.79,10,2279,10"/></g></g></svg>