<svg xmlns="http://www.w3.org/2000/svg" viewBox="0 0 249.66 302.52"><defs><style>.cls-1{fill:none;stroke:#2b2b33;stroke-miterlimit:10;stroke-width:5px;}</style></defs><g id="Layer_2" data-name="Layer 2"><g id="Layer_1-2" data-name="Layer 1"><path class="cls-1" d="M135.76,92.19a68.55,68.55,0,0,1-34.3,39.59,17.5,17.5,0,0,1-15.78-31.24,34.13,34.13,0,0,0,15.35-45,33.74,33.74,0,0,0-59.9,31.09A17.5,17.5,0,0,1,10.92,104.2a18.57,18.57,0,0,1-1-1.79A69.14,69.14,0,0,1,40.07,9.87l.15-.08a69,69,0,0,1,91.94,29.75c.08.14.15.29.23.44A68.62,68.62,0,0,1,135.76,92.19Z"/><path class="cls-1" d="M62.7,156c-2.1,43.64-29,41.17-27.1,68.79,1.27,19,18.4,22.45,20.17,53.3a24.7,24.7,0,0,1-.34,11.74c-1.51,4.76-5.26,9.33-13.93,10.21-16.7-.53-17-13.55-17-13.55a41.09,41.09,0,0,0,.08-8c-1.76-18.41-18-19.33-21-54.31C4,182.89,28.94,181.34,31,157.48c.3-25.24-16.09-23.6-20.06-53.28a17.49,17.49,0,0,0,30.92-3.41C44,115.19,64.11,126.74,62.7,156Z"/><circle class="cls-1" cx="229.66" cy="280.5" r="17.5"/><rect class="cls-1" x="125.16" y="158" width="32" height="81" rx="16"/><rect class="cls-1" x="169.16" y="158" width="32" height="141" rx="16"/><rect class="cls-1" x="81.16" y="158" width="32" height="141" rx="16"/></g></g></svg>