<svg xmlns="http://www.w3.org/2000/svg" viewBox="0 0 243.33 275.97"><defs><style>.cls-1{fill:none;stroke:#f3f2f9;stroke-miterlimit:10;stroke-width:5px;}</style></defs><g id="Layer_2" data-name="Layer 2"><g id="Layer_1-2" data-name="Layer 1"><path class="cls-1" d="M118.14,96.27A16.14,16.14,0,0,1,102,80.15v-.37c0,.26-.08.52-.11.79L88.42,200.5a5.45,5.45,0,0,1,1.07-.05A16.09,16.09,0,0,1,120,205.62h0L133.68,84.41A16.14,16.14,0,0,1,118.14,96.27Z"/><path class="cls-1" d="M206.15,224c-14,.43-17.07-8.56-17.71-11.52a10.64,10.64,0,0,1-.64,1.52,35.14,35.14,0,0,1-2,5.49,3.46,3.46,0,0,1-.88,1.23,12.47,12.47,0,0,1-2.06,3.42,33.62,33.62,0,0,1-62.73-14.79c0-.65-.06-1.3-.06-2a15.48,15.48,0,0,0-.09-1.68v0a16.12,16.12,0,0,0-32-.3,0,0,0,0,0,0,0,14.17,14.17,0,0,0-.13,2v.33A65.89,65.89,0,0,0,219.41,213C218.2,217.82,214.75,222.62,206.15,224Z"/><path class="cls-1" d="M219.41,213c-1.21,4.84-4.66,9.64-13.26,11.06-16.7.52-17.87-12.45-17.87-12.45a40.85,40.85,0,0,0-.42-8c-2.91-18.26-19.15-18.17-24.31-52.89-2.21-41.24,22.62-44.36,23.16-68.3-1.42-27.86-21.13-21.66-24.83-62.33-.22-3.48.68-16,14.78-17.61,4.26.17,16.16,1.23,17.07,17.23C191.65,37.2,217.79,46.11,218.27,79c.64,43.68-26.32,42.9-22.73,70.35,2.46,18.85,19.77,21.25,23.47,51.93A24.63,24.63,0,0,1,219.41,213Z"/><path class="cls-1" d="M34.58,81.75,49,256.15a16,16,0,1,1-31.89,2.63L2.69,84.38a16,16,0,0,1,31.63-4.46A15.5,15.5,0,0,1,34.58,81.75Z"/><path class="cls-1" d="M134.26,80.15a15.74,15.74,0,0,1-.58,4.25h0A16.12,16.12,0,0,1,102,80.15v-.39a33.64,33.64,0,0,0-67.28.39c0,.26,0,.52,0,.78A16,16,0,0,0,2.83,82.77v.62a15.69,15.69,0,0,1-.33-3.24A65.89,65.89,0,0,1,115,33.56,65.44,65.44,0,0,1,134.26,80.15Z"/><circle class="cls-1" cx="223.33" cy="20.27" r="17.5"/><circle class="cls-1" cx="67.33" cy="149.27" r="17.5"/></g></g></svg>