<svg xmlns="http://www.w3.org/2000/svg" viewBox="0 0 262.39 330.77"><defs><style>.cls-1{fill:none;stroke:#fff;stroke-miterlimit:10;stroke-width:5px;}</style></defs><g id="Layer_2" data-name="Layer 2"><g id="Layer_1-2" data-name="Layer 1"><circle class="cls-1" cx="242.39" cy="204.45" r="17.5"/><rect class="cls-1" x="178.89" y="186.95" width="32" height="141" rx="16"/><path class="cls-1" d="M154.19,160.29A17.47,17.47,0,0,1,135.76,164a17.26,17.26,0,0,1-6.32-4.22c-.16-.17-.33-.34-.48-.52a68.44,68.44,0,0,1-14.21-22.91c-.34-.93-.67-1.86-1-2.8a67.79,67.79,0,0,1-2.34-9.44,66.15,66.15,0,0,1,4.84,5.76c.45.6.9,1.22,1.33,1.84a67.59,67.59,0,0,0,8.88-5.48,68.9,68.9,0,0,0,19.94-22.56,34.37,34.37,0,0,0-1,9.84,19.35,19.35,0,0,1,1.9,6.62q.1,1.92.15,3.72a33.66,33.66,0,0,0,7.3,11.75A17.49,17.49,0,0,1,154.19,160.29Z"/><path class="cls-1" d="M149,313.35s.73,13-15.87,14.92c-19.27-.33-16-20.69-16-20.69-.81-30.89,16-35.79,15.67-54.79-.29-18-11.64-22.32-21.11-35.07-5.08-6.83-9.62-16.1-11.62-31.23-3.25-24.64,10-37.86,14.68-50.19A68.44,68.44,0,0,0,129,159.21c.15.18.32.35.48.52a17.26,17.26,0,0,0,6.32,4.22c-2.88,5.45-4.91,11.42-4,21.41,4,23.61,29,23.08,32.86,64.2C164.59,289.12,144.18,287,149,313.35Z"/><path class="cls-1" d="M100.07,186.49c2,15.13,6.54,24.4,11.62,31.23a69,69,0,0,1-90.84,7.7,17.5,17.5,0,0,1,20.81-28.14,34.14,34.14,0,0,0,47.11-6.51A34.17,34.17,0,0,0,81.42,144a34.07,34.07,0,0,0-47.35,7.26A17.5,17.5,0,0,1,5.93,130.41a69.06,69.06,0,0,1,96.24-14.62l.13.1a68.59,68.59,0,0,1,9.14,8.17,67.79,67.79,0,0,0,2.34,9.44c.3.94.63,1.87,1,2.8C110.09,148.63,96.82,161.85,100.07,186.49Z"/><path class="cls-1" d="M118.85,78.9a33.48,33.48,0,0,1-4.48,10A66.82,66.82,0,0,1,118.85,78.9Z"/><path class="cls-1" d="M246.93,113.38a68.65,68.65,0,0,1-21.33,47.85,17.5,17.5,0,0,1-24.17-25.31A34.14,34.14,0,0,0,203,88.39a34.15,34.15,0,0,0-47.36-.73,33.76,33.76,0,0,0-4.61,5.52A70.31,70.31,0,0,0,154,81.78c0-.06,0-.11,0-.17a68.36,68.36,0,0,0-2.68-32.45A69,69,0,0,1,228.18,64l.35.36A68.61,68.61,0,0,1,246.93,113.38Z"/><path class="cls-1" d="M154,81.61c0,.06,0,.11,0,.17a70.31,70.31,0,0,1-2.92,11.4,33.59,33.59,0,0,0-4.64,10.43h0a68.9,68.9,0,0,1-19.94,22.56,67.59,67.59,0,0,1-8.88,5.48c-.43-.62-.88-1.24-1.33-1.84a66.15,66.15,0,0,0-4.84-5.76,68.59,68.59,0,0,0-9.14-8.17l-.13-.1a69.15,69.15,0,0,0-71.57-6.06A68.55,68.55,0,0,1,19.32,59.46,17.5,17.5,0,0,1,53.86,65.1,34.13,34.13,0,0,0,81.21,104a34.18,34.18,0,0,0,33.16-15.07h0a33.48,33.48,0,0,0,4.48-10h0c.24-.93.45-1.87.61-2.83A34.08,34.08,0,0,0,91.34,37.27,17.5,17.5,0,1,1,97,2.73a69.12,69.12,0,0,1,54.36,46.43A68.36,68.36,0,0,1,154,81.61Z"/><path class="cls-1" d="M151.07,93.18a68.13,68.13,0,0,1-4.64,10.43A33.59,33.59,0,0,1,151.07,93.18Z"/></g></g></svg>