<svg xmlns="http://www.w3.org/2000/svg" viewBox="0 0 245.72 275.81"><defs><style>.cls-1{fill:none;stroke:#fff;stroke-miterlimit:10;stroke-width:5px;}</style></defs><g id="Layer_2" data-name="Layer 2"><g id="Layer_1-2" data-name="Layer 1"><path class="cls-1" d="M139,165.12a68.6,68.6,0,0,1-16.48,44.27c0-.65-.06-1.3-.06-2a16.12,16.12,0,0,0-32.24,0v.33a17.51,17.51,0,0,1,3.81-19.07,34.12,34.12,0,0,0,.52-47.54A33.75,33.75,0,0,0,47.4,189.4a17.5,17.5,0,0,1-24.75,24.75,69.15,69.15,0,0,1-.24-97.35l.12-.11a69,69,0,0,1,96.64-.47l.35.35A68.61,68.61,0,0,1,139,165.12Z"/><path class="cls-1" d="M221.8,213a65.89,65.89,0,0,1-131.54-5.22v-.33a16.12,16.12,0,0,1,32.24,0c0,.66,0,1.31.06,2a33.64,33.64,0,0,0,67.23-2,15.74,15.74,0,0,1,.46-3.79c1,2.13.53,4.93.42,8,0,0,1.17,13,17.87,12.45C217.14,222.62,220.59,217.82,221.8,213Z"/><path class="cls-1" d="M221.8,213c-1.21,4.84-4.66,9.64-13.26,11.06-16.7.52-17.87-12.45-17.87-12.45a40.85,40.85,0,0,0-.42-8c-2.91-18.26-19.15-18.17-24.31-52.89-2.21-41.24,22.62-44.36,23.16-68.3C187.68,54.59,168,60.79,164.27,20.12c-.22-3.48.68-16,14.78-17.61,4.26.17,16.16,1.23,17.07,17.23C194,37.2,220.18,46.11,220.66,79c.64,43.68-26.32,42.9-22.73,70.35,2.46,18.85,19.77,21.25,23.47,51.93A24.63,24.63,0,0,1,221.8,213Z"/><path class="cls-1" d="M70.77,14.27a65.83,65.83,0,0,1,65.88,65.88,16.12,16.12,0,1,1-32.23,0,33.65,33.65,0,1,0-67.29,0,16.12,16.12,0,0,1-32.24,0A65.84,65.84,0,0,1,70.77,14.27Z"/><circle class="cls-1" cx="225.72" cy="20.27" r="17.5"/></g></g></svg>